<svg aria-hidden="true" style="position:absolute;width:0;height:0;overflow:hidden" xmlns="http://www.w3.org/2000/svg">
  <defs>
<!--Header_icon-->
    <symbol id="icon-menu" viewBox="0 0 43 32">
      <path d="M.592 3.556a2.073 2.073 0 0 1 2.074-2.074h37.333a2.075 2.075 0 0 1 0 4.148H2.666A2.073 2.073 0 0 1 .592 3.556zm0 12.51a2.073 2.073 0 0 1 2.074-2.074h37.333a2.075 2.075 0 0 1 0 4.148H2.666a2.075 2.075 0 0 1-2.074-2.074zm2.074 10.437a2.073 2.073 0 0 0-1.467 3.541c.389.389.917.607 1.467.607h37.333A2.075 2.075 0 1 0 40 26.503H2.667z"/>
    </symbol>
    <symbol id="icon-close-menu" viewBox="0 0 32 32">
<path d="M19.141 16.123l10.676-10.668c0.36-0.42 0.548-0.96 0.527-1.513s-0.251-1.077-0.642-1.467c-0.391-0.391-0.915-0.62-1.469-0.641s-1.093 0.167-1.514 0.526l-10.676 10.558-10.742-10.734c-0.42-0.36-0.961-0.548-1.514-0.526s-1.077 0.25-1.469 0.641c-0.391 0.391-0.62 0.915-0.642 1.467s0.167 1.093 0.527 1.513l10.72 10.844-10.501 10.361c-0.23 0.197-0.417 0.439-0.549 0.711s-0.206 0.569-0.218 0.871 0.039 0.604 0.15 0.885c0.11 0.282 0.278 0.538 0.492 0.751s0.47 0.381 0.752 0.492c0.282 0.11 0.584 0.161 0.886 0.15s0.599-0.086 0.872-0.217c0.273-0.132 0.515-0.318 0.712-0.548l10.479-10.471 10.413 10.405c0.42 0.359 0.961 0.547 1.514 0.526s1.077-0.25 1.469-0.641c0.391-0.391 0.621-0.915 0.642-1.467s-0.167-1.093-0.527-1.512l-10.369-10.295z"></path>
</symbol>
<!--Delivery_icon-->
    <symbol id="icon-touch" viewBox="0 0 32 32">
      <path d="M15.5 1.333c2.022 0 3.75.706 5.183 2.117s2.15 3.128 2.15 5.15c0 1.156-.25 2.244-.75 3.267s-1.206 1.889-2.117 2.6h-1.133V12.8c.644-.511 1.139-1.133 1.483-1.867s.517-1.511.517-2.333c0-1.467-.522-2.711-1.567-3.733s-2.3-1.533-3.767-1.533-2.722.511-3.767 1.533-1.567 2.267-1.567 3.733c0 .822.172 1.6.517 2.333s.839 1.356 1.483 1.867v2.4c-1.244-.645-2.222-1.556-2.933-2.733S8.165 10 8.165 8.6c0-2.022.717-3.739 2.15-5.15s3.161-2.117 5.183-2.117zm-1.266 28c-.378 0-.733-.072-1.067-.217s-.622-.339-.867-.583l-6.867-6.867L7.3 19.733c.311-.311.661-.55 1.05-.717s.794-.194 1.217-.083l2.6.6V8.666c0-.933.322-1.722.967-2.367s1.433-.967 2.367-.967c.933 0 1.722.322 2.367.967s.967 1.433.967 2.367v5.733h.867c.111 0 .211.022.3.067s.189.089.3.133l4.933 2.4c.533.244.928.639 1.183 1.183s.328 1.106.217 1.683l-1.2 7.267c-.111.645-.422 1.172-.933 1.583s-1.089.617-1.733.617h-8.533zm-.267-2h9.367l1.433-8.3-6.1-3.033h-1.833V8.667c0-.4-.122-.722-.367-.967s-.567-.367-.967-.367-.722.122-.967.367c-.245.244-.367.567-.367.967v13.3l-5.133-1.1-.767.767 5.7 5.7zm9.367 0z"/>
    </symbol>
    <symbol id="icon-rocket" viewBox="0 0 32 32">
      <path d="m7.233 13.633 3.533 1.5c.4-.8.828-1.589 1.283-2.367s.939-1.522 1.45-2.233L10.866 10l-3.633 3.633zm5.134 2.7 4.433 4.433c1.267-.578 2.456-1.233 3.567-1.967s2.011-1.444 2.7-2.133c1.8-1.8 3.122-3.644 3.967-5.533s1.3-4.022 1.367-6.4c-2.378.067-4.511.522-6.4 1.367s-3.733 2.167-5.533 3.967c-.689.689-1.4 1.589-2.133 2.7s-1.389 2.3-1.967 3.567zm7.633-3.2c-.444-.444-.667-.995-.667-1.65s.222-1.206.667-1.65.994-.667 1.65-.667c.656 0 1.206.222 1.65.667s.667.994.667 1.65c0 .655-.222 1.206-.667 1.65s-.994.667-1.65.667-1.206-.222-1.65-.667zM19.5 25.9l3.633-3.633-.533-2.633c-.711.511-1.456.994-2.233 1.45S18.8 21.967 18 22.367l1.5 3.533zM30.367 2.767c.2 3.022-.178 5.778-1.133 8.267s-2.533 4.833-4.733 7.033l-.133.133.733 3.667c.067.333.05.656-.05.967s-.272.589-.517.833l-5.7 5.733-2.833-6.6-5.667-5.667-6.6-2.833 5.733-5.7c.244-.244.522-.417.833-.517s.633-.117.967-.05l3.667.733c.022-.022.044-.039.067-.05s.044-.028.067-.05c2.2-2.2 4.544-3.783 7.033-4.75s5.244-1.35 8.267-1.15zm-24.4 18.4c.778-.778 1.728-1.172 2.85-1.183s2.072.372 2.85 1.15c.778.778 1.161 1.728 1.15 2.85s-.406 2.072-1.183 2.85c-.578.578-1.472 1.055-2.683 1.433s-3.028.733-5.45 1.067c.333-2.422.683-4.244 1.05-5.467s.839-2.122 1.417-2.7zm1.4 1.433c-.311.333-.589.856-.833 1.567s-.456 1.622-.633 2.733c1.111-.178 2.022-.389 2.733-.633s1.233-.522 1.567-.833c.422-.378.639-.85.65-1.417s-.183-1.061-.583-1.483c-.422-.4-.917-.595-1.483-.583s-1.039.228-1.417.65z"/>
    </symbol>
<!--Slider_icon-->
    <symbol id="icon-slider_left" viewBox="0 0 17 32">
      <path stroke-width="1.454" d="M1.105 16.395a.548.548 0 0 1-.125-.61.55.55 0 0 1 .125-.18L15.291 2.089a.545.545 0 0 1 .747-.005l.008.008.014.013a.442.442 0 0 1 0 .644l-.001.001L2.148 15.999 16.06 29.254a.442.442 0 0 1 0 .644l-.013.013-.008.008a.543.543 0 0 1-.747-.005L1.106 16.398z"/>
    </symbol>
    <symbol id="icon-slider_right" viewBox="0 0 17 32">
      <path stroke-width="1.454" d="M16.349 15.605a.548.548 0 0 1 .125.61.55.55 0 0 1-.125.18L2.163 29.911a.543.543 0 0 1-.747.005l-.008-.008-.014-.013a.442.442 0 0 1 0-.644l.001-.001 13.911-13.249L1.394 2.746a.442.442 0 0 1 0-.644l.021-.021a.545.545 0 0 1 .747.005l14.186 13.516z"/>
    </symbol>
<!--Logo_icon--> 
     <symbol id="icon-logo" viewBox="0 0 44 32">
<path fill="#ffe553" style="fill: var(--color1, #ffe553)" d="M16.495 6.456c1.013-1.982 3.846-1.982 4.86 0l1.283 2.51c0.397 0.776 1.141 1.316 2.002 1.453l2.78 0.441c2.202 0.35 3.078 3.049 1.501 4.625l-1.984 1.983c-0.618 0.617-0.902 1.493-0.766 2.356l0.438 2.773c0.348 2.2-1.945 3.868-3.931 2.859l-2.517-1.278c-0.777-0.394-1.695-0.394-2.471 0l-2.517 1.278c-1.986 1.009-4.279-0.659-3.931-2.859l0.438-2.773c0.136-0.863-0.149-1.738-0.766-2.356l-1.983-1.983c-1.577-1.576-0.701-4.275 1.501-4.625l2.78-0.441c0.861-0.137 1.605-0.677 2.002-1.453l1.283-2.51z"></path>
<path fill="#2c2c2c" style="fill: var(--color2, #2c2c2c)" d="M3.476 20.533l-0.021 0.005c0.003 0.074-0.001 0.374-0.011 0.9-0.003 0.524-0.004 0.868-0.002 1.032-0 0.157-0.003 0.285-0.010 0.384 0.001 0.097 0.001 0.209 0.001 0.336-0.001 0.12-0.008 0.219-0.020 0.296-0.006 0.069-0.012 0.137-0.018 0.206-0.014 0.13-0.042 0.201-0.085 0.211-0.092 0.022-0.236-0.049-0.432-0.212-0.197-0.17-0.311-0.319-0.341-0.447s-0.038-1.060-0.024-2.798c0.021-1.74-0.025-2.884-0.14-3.432-0.025-0.106-0.021-0.197 0.014-0.273 0.036-0.165 0.219-0.321 0.551-0.467 0.339-0.147 0.845-0.3 1.518-0.459 0.68-0.161 1.219-0.25 1.619-0.27 0.406-0.021 0.625 0.032 0.655 0.159 0.020 0.085-0.026 0.159-0.138 0.223s-0.212 0.117-0.299 0.16c-0.089 0.036-0.205 0.082-0.349 0.138-0.145 0.049-0.28 0.096-0.404 0.14-0.126 0.037-0.289 0.091-0.489 0.16-0.193 0.068-0.372 0.133-0.537 0.194-0.167 0.054-0.391 0.133-0.673 0.237s-0.465 0.169-0.548 0.197c0.012 0.020 0.023 0.051 0.033 0.093 0.079 0.333 0.122 1.13 0.129 2.392 0.444-0.082 0.913-0.204 1.405-0.365 0.5-0.163 0.806-0.258 0.92-0.284 0.269-0.064 0.417-0.039 0.444 0.075 0.052 0.219-0.212 0.476-0.793 0.77-0.574 0.293-1.226 0.525-1.955 0.697zM10.411 18.582c-0.057-0.241-0.15-0.458-0.278-0.652-0.13-0.201-0.281-0.334-0.453-0.398-0.457 0.25-0.788 0.728-0.995 1.435-0.201 0.698-0.237 1.32-0.108 1.865s0.344 0.853 0.645 0.924c0.486-0.219 0.836-0.668 1.049-1.347 0.219-0.687 0.265-1.296 0.139-1.827zM7.639 19.337c0.117-0.611 0.332-1.14 0.645-1.588 0.318-0.456 0.686-0.734 1.104-0.833 0.425-0.1 0.822-0.003 1.191 0.291 0.367 0.287 0.612 0.689 0.735 1.206 0.121 0.51 0.121 1.063 0.001 1.66-0.122 0.59-0.361 1.113-0.716 1.571-0.35 0.449-0.769 0.731-1.258 0.846-0.361 0.085-0.702-0.010-1.021-0.286s-0.54-0.669-0.661-1.179c-0.122-0.517-0.129-1.080-0.019-1.689zM15.224 17.445c-0.057-0.241-0.15-0.458-0.278-0.652-0.13-0.201-0.281-0.334-0.453-0.398-0.457 0.25-0.788 0.728-0.995 1.435-0.201 0.698-0.237 1.32-0.108 1.865s0.344 0.853 0.645 0.924c0.486-0.22 0.836-0.669 1.049-1.347 0.219-0.687 0.265-1.296 0.139-1.827zM12.453 18.201c0.117-0.611 0.332-1.14 0.645-1.588 0.318-0.456 0.686-0.734 1.104-0.833 0.425-0.1 0.822-0.003 1.191 0.291 0.367 0.287 0.612 0.689 0.735 1.206 0.121 0.51 0.121 1.063 0.001 1.66-0.122 0.59-0.361 1.113-0.716 1.571-0.35 0.449-0.769 0.731-1.258 0.846-0.361 0.085-0.702-0.010-1.021-0.286s-0.54-0.669-0.661-1.179c-0.122-0.517-0.129-1.080-0.019-1.689zM20.244 11.213c0.113-0.027 0.277 0.047 0.49 0.221 0.219 0.165 0.35 0.34 0.393 0.524s0.079 0.729 0.107 1.635c0.026 0.899 0.031 1.836 0.016 2.811-0.020 2.188-0.111 3.301-0.274 3.34-0.099 0.023-0.223-0.011-0.372-0.103-0.143-0.101-0.226-0.197-0.248-0.289s-0.041-0.282-0.057-0.57c-0.526 0.872-1.048 1.369-1.565 1.491-0.312 0.074-0.628-0.001-0.951-0.224-0.315-0.225-0.509-0.489-0.581-0.794-0.104-0.439-0.111-0.987-0.020-1.644 0.096-0.666 0.309-1.299 0.638-1.9s0.745-0.961 1.247-1.080 0.925 0.1 1.266 0.655c0.005-1.586-0.077-2.819-0.248-3.699-0.050-0.212 0.002-0.337 0.158-0.374zM20.311 16.704c-0.091-0.382-0.234-0.689-0.431-0.919-0.19-0.232-0.376-0.326-0.561-0.283-0.305 0.072-0.572 0.333-0.801 0.784s-0.382 0.943-0.458 1.476c-0.070 0.525-0.063 0.965 0.021 1.319 0.030 0.127 0.101 0.219 0.211 0.275s0.23 0.069 0.357 0.039c0.276-0.065 0.601-0.351 0.974-0.858 0.381-0.509 0.613-1.057 0.698-1.645l0.002-0.135-0.013-0.053zM27.094 16.068c0.138 0.581-0.009 1.131-0.439 1.651-0.432 0.513-0.988 0.85-1.668 1.011-0.673 0.159-1.27 0.117-1.791-0.127-0.523-0.25-0.821-0.531-0.895-0.843-0.050-0.212-0.012-0.334 0.116-0.364 0.113-0.027 0.377 0.091 0.79 0.352 0.156 0.090 0.353 0.163 0.59 0.219 0.245 0.054 0.488 0.053 0.728-0.004 0.496-0.117 0.905-0.348 1.227-0.693 0.329-0.347 0.458-0.669 0.388-0.966-0.045-0.191-0.231-0.405-0.556-0.643s-0.675-0.45-1.049-0.639c-0.368-0.197-0.716-0.418-1.043-0.662s-0.512-0.455-0.554-0.632c-0.042-0.177-0.051-0.373-0.027-0.588s0.067-0.379 0.131-0.491c0.204-0.37 0.566-0.751 1.087-1.143 0.527-0.394 0.989-0.637 1.386-0.731 0.205-0.048 0.395-0.022 0.568 0.079s0.278 0.226 0.313 0.375c0.017 0.071-0.044 0.145-0.183 0.223s-0.352 0.188-0.64 0.33c-0.282 0.134-0.529 0.275-0.741 0.422-0.741 0.504-1.077 0.901-1.008 1.191 0.037 0.156 0.554 0.493 1.553 1.013 0.384 0.201 0.747 0.455 1.090 0.763 0.348 0.299 0.557 0.598 0.627 0.895zM29.534 16.602c0.032 0.135 0.126 0.183 0.282 0.147 0.269-0.064 0.577-0.215 0.924-0.454 0.353-0.248 0.55-0.377 0.593-0.387 0.127-0.030 0.207 0.022 0.239 0.157 0.049 0.205-0.108 0.493-0.469 0.862-0.354 0.368-0.705 0.593-1.052 0.674-0.34 0.080-0.645 0.055-0.915-0.075-0.272-0.138-0.431-0.306-0.478-0.504s-0.064-0.46-0.051-0.784c0.011-0.332 0.035-0.767 0.072-1.307 0.042-0.548 0.070-1 0.083-1.354-0.314 0.156-0.528 0.248-0.642 0.275s-0.24-0.003-0.38-0.090c-0.135-0.095-0.215-0.196-0.24-0.302-0.040-0.17 0.381-0.441 1.265-0.815-0.012-0.618-0.071-1.153-0.179-1.606-0.050-0.212-0.005-0.335 0.137-0.369 0.12-0.028 0.288 0.014 0.502 0.128 0.212 0.107 0.341 0.256 0.386 0.447s0.065 0.542 0.059 1.052c0.395-0.131 0.713-0.224 0.954-0.281 0.425-0.1 0.659-0.058 0.703 0.126 0.025 0.106-0.071 0.222-0.288 0.348-0.21 0.124-0.665 0.348-1.367 0.67-0.016 0.595-0.052 1.28-0.107 2.055-0.057 0.769-0.067 1.231-0.030 1.387zM34.281 11.040c0.319-0.075 0.651 0.018 0.998 0.28 0.345 0.255 0.548 0.514 0.61 0.776 0.060 0.255 0.034 0.538-0.079 0.849 0.11 0.086 0.174 0.168 0.193 0.246 0.047 0.198 0.081 0.549 0.104 1.052 0.029 0.502 0.051 0.829 0.065 0.983 0.021 0.152 0.035 0.276 0.043 0.371 0.006 0.088 0.008 0.178 0.007 0.267 0.014 0.184-0.029 0.287-0.128 0.311-0.127 0.030-0.26-0.055-0.397-0.254-0.132-0.208-0.246-0.488-0.345-0.838-0.441 0.949-0.93 1.487-1.468 1.614-0.326 0.077-0.681 0.015-1.065-0.186-0.379-0.21-0.603-0.463-0.674-0.761-0.101-0.425-0.069-0.986 0.095-1.682 0.162-0.704 0.433-1.358 0.813-1.964s0.79-0.96 1.229-1.064zM35.213 12.794c-0.156-0.659-0.365-0.957-0.627-0.895-0.276 0.065-0.551 0.339-0.826 0.823-0.276 0.476-0.483 0.993-0.62 1.548s-0.172 0.979-0.103 1.269c0.029 0.12 0.102 0.208 0.219 0.262 0.116 0.047 0.241 0.055 0.376 0.023 0.333-0.079 0.655-0.39 0.967-0.935 0.31-0.552 0.471-1.169 0.481-1.852-0.004-0.111 0.041-0.189 0.135-0.234l-0.002-0.011z"></path>
<path fill="#bbf330" style="fill: var(--color3, #bbf330)" d="M33.157 19.973c-0.304 0.075-0.543 0.306-0.643 0.602-1.911 5.65-7.264 9.719-13.571 9.719-3.825 0-7.299-1.497-9.867-3.935-0.226-0.215-0.545-0.307-0.848-0.232-0.641 0.158-0.883 0.934-0.408 1.392 2.882 2.774 6.803 4.48 11.122 4.48 7.097 0 13.116-4.605 15.224-10.986 0.207-0.626-0.369-1.199-1.009-1.041zM4.187 14.15c0.346-0.085 0.603-0.374 0.667-0.725 1.214-6.664 7.058-11.72 14.089-11.72 4.571 0 8.641 2.137 11.262 5.464 0.22 0.279 0.58 0.414 0.925 0.328 0.585-0.144 0.85-0.825 0.48-1.301-2.932-3.771-7.516-6.198-12.667-6.198-7.903 0-14.47 5.711-15.786 13.224-0.104 0.592 0.446 1.070 1.030 0.926z"></path>
<path fill="#bbf330" style="fill: var(--color3, #bbf330); stroke: var(--color3, #bbf330)" stroke="#bbf330" stroke-linejoin="round" stroke-linecap="butt" stroke-miterlimit="4" stroke-width="0.6275" d="M43.041 5.332c-3.787 7.241-5.45 2.465-10.782 5.271 0.533-8.406 6.18-3.291 10.782-5.271z"></path>
</symbol>  
<!--Customer-say--> 
<symbol id="icon-star" viewBox="0 0 34 32">
<path d="M15.421 1.037c0.584-1.383 2.575-1.383 3.159 0l3.449 8.164c0.247 0.583 0.804 0.982 1.443 1.032l8.952 0.707c1.517 0.12 2.132 1.983 0.976 2.958l-6.821 5.752c-0.487 0.411-0.7 1.056-0.551 1.67l2.084 8.6c0.353 1.457-1.257 2.609-2.556 1.828l-7.664-4.609c-0.547-0.329-1.236-0.329-1.783 0l-7.664 4.609c-1.299 0.781-2.909-0.371-2.556-1.828l2.084-8.6c0.149-0.614-0.064-1.259-0.551-1.67l-6.821-5.752c-1.156-0.975-0.541-2.838 0.976-2.958l8.952-0.707c0.639-0.050 1.196-0.449 1.443-1.032l3.449-8.164z"></path>
</symbol>
<symbol id="icon-stars" viewBox="0 0 202 32">
<path fill="#ffe550" style="fill: var(--color1, #ffe550)" d="M15.421 1.037c0.584-1.383 2.575-1.383 3.159 0l3.449 8.164c0.247 0.583 0.804 0.982 1.443 1.032l8.952 0.707c1.517 0.12 2.132 1.983 0.976 2.958l-6.821 5.752c-0.487 0.411-0.7 1.056-0.551 1.67l2.084 8.6c0.353 1.457-1.257 2.609-2.556 1.828l-7.664-4.609c-0.547-0.329-1.236-0.329-1.783 0l-7.664 4.609c-1.299 0.781-2.909-0.371-2.556-1.828l2.084-8.6c0.149-0.614-0.064-1.259-0.551-1.67l-6.821-5.752c-1.156-0.975-0.541-2.838 0.976-2.958l8.952-0.707c0.639-0.050 1.196-0.449 1.443-1.032l3.449-8.164z"></path>
<path fill="#ffe550" style="fill: var(--color1, #ffe550)" d="M57.421 1.037c0.584-1.383 2.575-1.383 3.159 0l3.449 8.164c0.247 0.583 0.804 0.982 1.443 1.032l8.952 0.707c1.517 0.12 2.132 1.983 0.976 2.958l-6.821 5.752c-0.487 0.411-0.7 1.056-0.551 1.67l2.084 8.6c0.353 1.457-1.257 2.609-2.556 1.828l-7.664-4.609c-0.548-0.329-1.236-0.329-1.783 0l-7.664 4.609c-1.299 0.781-2.909-0.371-2.556-1.828l2.084-8.6c0.149-0.614-0.064-1.259-0.551-1.67l-6.821-5.752c-1.156-0.975-0.541-2.838 0.976-2.958l8.952-0.707c0.639-0.050 1.196-0.449 1.443-1.032l3.449-8.164z"></path>
<path fill="#ffe550" style="fill: var(--color1, #ffe550)" d="M99.421 1.037c0.584-1.383 2.575-1.383 3.159 0l3.449 8.164c0.247 0.583 0.804 0.982 1.443 1.032l8.952 0.707c1.517 0.12 2.132 1.983 0.976 2.958l-6.821 5.752c-0.487 0.411-0.7 1.056-0.551 1.67l2.084 8.6c0.353 1.457-1.257 2.609-2.556 1.828l-7.664-4.609c-0.548-0.329-1.236-0.329-1.783 0l-7.664 4.609c-1.299 0.781-2.909-0.371-2.556-1.828l2.084-8.6c0.149-0.614-0.064-1.259-0.551-1.67l-6.821-5.752c-1.156-0.975-0.541-2.838 0.976-2.958l8.952-0.707c0.639-0.050 1.196-0.449 1.443-1.032l3.449-8.164z"></path>
<path fill="#ffe550" style="fill: var(--color1, #ffe550)" d="M141.421 1.037c0.584-1.383 2.575-1.383 3.159 0l3.449 8.164c0.247 0.583 0.804 0.982 1.443 1.032l8.952 0.707c1.517 0.12 2.132 1.983 0.976 2.958l-6.821 5.752c-0.487 0.411-0.7 1.056-0.551 1.67l2.084 8.6c0.353 1.457-1.257 2.609-2.556 1.828l-7.664-4.609c-0.548-0.329-1.236-0.329-1.783 0l-7.664 4.609c-1.299 0.781-2.909-0.371-2.556-1.828l2.084-8.6c0.149-0.614-0.064-1.259-0.551-1.67l-6.821-5.752c-1.156-0.975-0.541-2.838 0.976-2.958l8.952-0.707c0.639-0.050 1.196-0.449 1.443-1.032l3.449-8.164z"></path>
<path fill="#ffe550" style="fill: var(--color1, #ffe550)" d="M183.421 1.037c0.584-1.383 2.575-1.383 3.159 0l3.449 8.164c0.247 0.583 0.804 0.982 1.443 1.032l8.953 0.707c1.516 0.12 2.132 1.983 0.976 2.958l-6.821 5.752c-0.487 0.411-0.7 1.056-0.551 1.67l2.084 8.6c0.353 1.457-1.257 2.609-2.556 1.828l-7.664-4.609c-0.548-0.329-1.236-0.329-1.783 0l-7.664 4.609c-1.299 0.781-2.909-0.371-2.556-1.828l2.084-8.6c0.149-0.614-0.064-1.259-0.551-1.67l-6.821-5.752c-1.156-0.975-0.541-2.838 0.976-2.958l8.952-0.707c0.639-0.050 1.196-0.449 1.443-1.032l3.449-8.164z"></path>
</symbol>
<!--Modal window icons-->
    <symbol id="close" viewBox="0 0 32 32">
<path d="M32 3.223l-3.223-3.223-12.777 12.777-12.777-12.777-3.223 3.223 12.777 12.777-12.777 12.777 3.223 3.223 12.777-12.777 12.777 12.777 3.223-3.223-12.777-12.777 12.777-12.777z"></path>
</symbol>
<symbol id="namevector" viewBox="0 0 32 32">
<path d="M16 16c4.42 0 8-3.58 8-8s-3.58-8-8-8c-4.42 0-8 3.58-8 8s3.58 8 8 8zM16 20c-5.34 0-16 2.68-16 8v2c0 1.1 0.9 2 2 2h28c1.1 0 2-0.9 2-2v-2c0-5.32-10.66-8-16-8z"></path>
</symbol>
<symbol id="phoneblack" viewBox="0 0 20 20">
<path d="M15.551 12.358l-2.042-0.233c-0.491-0.056-0.973 0.113-1.319 0.458l-1.479 1.48c-2.276-1.158-4.141-3.015-5.299-5.299l1.488-1.488c0.346-0.346 0.515-0.828 0.458-1.319l-0.233-2.026c-0.097-0.812-0.78-1.423-1.6-1.423h-1.391c-0.909 0-1.664 0.756-1.608 1.664 0.426 6.867 5.918 12.351 12.777 12.777 0.909 0.056 1.664-0.7 1.664-1.608v-1.391c0.008-0.812-0.603-1.496-1.415-1.592z"></path>
</symbol>
<symbol id="emailblack" viewBox="0 0 32 32">
<path d="M26.667 5.333h-21.333c-1.467 0-2.653 1.2-2.653 2.667l-0.013 16c0 1.467 1.2 2.667 2.667 2.667h21.333c1.467 0 2.667-1.2 2.667-2.667v-16c0-1.467-1.2-2.667-2.667-2.667zM26.133 11l-9.427 5.893c-0.427 0.267-0.987 0.267-1.413 0l-9.427-5.893c-0.333-0.213-0.533-0.573-0.533-0.96 0-0.893 0.973-1.427 1.733-0.96l8.933 5.587 8.933-5.587c0.76-0.467 1.733 0.067 1.733 0.96 0 0.387-0.2 0.747-0.533 0.96z"></path>
</symbol>
<symbol id="send" viewBox="0 0 32 32">
<path d="M32 0l-32 18 10.227 3.788 15.773-14.788-11.998 16.186 0.010 0.004-0.012-0.004v8.814l5.735-6.691 7.265 2.691 5-28z"></path>
</symbol>
<symbol id="icon-send" viewBox="0 0 32 32">
<path fill="#fff" style="fill: var(--color1, #fff)" d="M32 0l-32 18 10.227 3.788 15.773-14.788-11.998 16.186 0.010 0.004-0.012-0.004v8.814l5.735-6.691 7.265 2.691 5-28z"></path>
</symbol>
<symbol id="notcheck" viewBox="0 0 34 32">
<path d="M30.341 3.556v24.889h-26.548v-24.889h26.548zM30.341 0h-26.548c-2.086 0-3.793 1.6-3.793 3.556v24.889c0 1.956 1.707 3.556 3.793 3.556h26.548c2.086 0 3.793-1.6 3.793-3.556v-24.889c0-1.956-1.707-3.556-3.793-3.556z"></path>
</symbol>
<symbol id="iconcheck" viewBox="0 0 34 32">
<path fill="#2196f3" style="fill: var(--color1, #2196f3)" d="M4.267 0h25.6c2.356 0 4.267 1.91 4.267 4.267v23.467c0 2.356-1.91 4.267-4.267 4.267h-25.6c-2.356 0-4.267-1.91-4.267-4.267v-23.467c0-2.356 1.91-4.267 4.267-4.267z"></path>
<path fill="#fff" style="fill: var(--color2, #fff); stroke: var(--color2, #fff)" stroke="#fff" stroke-linejoin="miter" stroke-linecap="butt" stroke-miterlimit="4" stroke-width="0.4267" d="M8.442 16.537l-0.147-0.14-2.205 2.088 7.767 7.41 16.318-15.567-2.19-2.089-14.128 13.465-5.416-5.167z"></path>
</symbol>
<symbol id="check" viewBox="0 0 42 32">
<path fill="#fff" style="fill: var(--color1, #fff); stroke: var(--color1, #fff)" stroke="#fff" stroke-linejoin="miter" stroke-linecap="butt" stroke-miterlimit="4" stroke-width="0.64" d="M6.263 15.205l-0.22-0.21-3.307 3.132 11.651 11.114 24.477-23.351-3.285-3.134-21.192 20.197-8.124-7.75z"></path>
</symbol>
  </defs>
</svg>